<?xml version="1.0" encoding="UTF-8"?>
<svg width="119px" height="24px" viewBox="0 0 119 24" version="1.1" xmlns="http://www.w3.org/2000/svg" xmlns:xlink="http://www.w3.org/1999/xlink">
    <!-- Generator: Sketch 43.1 (39012) - http://www.bohemiancoding.com/sketch -->
    <title>Group 4</title>
    <desc>Created with Sketch.</desc>
    <defs></defs>
    <g id="Page-1" stroke="none" stroke-width="1" fill="none" fill-rule="evenodd">
        <g id="Login" transform="translate(-440.000000, -218.000000)" fill-rule="nonzero" fill="#FFFFFF">
            <g id="Group-2" transform="translate(259.000000, 171.000000)">
                <g id="Group-4" transform="translate(181.000000, 47.000000)">
                    <path d="M0,7.77615136 L2.83464118,7.77615136 L2.83464118,10.1325609 L2.83464118,10.1325609 C3.30708138,9.42563801 3.77952157,8.71871516 4.72440197,8.24743326 C5.66928236,7.77615136 6.61416276,7.5405104 7.79526325,7.5405104 C8.50392354,7.5405104 9.21258384,7.5405104 9.92124413,7.77615136 C10.8661245,8.01179231 11.3385647,8.24743326 11.8110049,8.71871516 C12.2834451,9.18999706 12.7558853,9.89691991 12.9921054,10.6038428 C13.4645456,11.3107656 13.4645456,12.2533294 13.4645456,13.1958932 L13.4645456,22.8571722 L10.6299044,22.8571722 L10.6299044,13.9028161 C10.6299044,13.1958932 10.6299044,12.4889704 10.3936843,12.0176885 C10.1574642,11.5464066 9.92124413,11.3107656 9.68502404,10.8394837 C9.21258384,10.6038428 8.97636374,10.3682018 8.50392354,10.3682018 C8.03148335,10.1325609 7.55904315,10.1325609 7.32282305,10.1325609 C6.61416276,10.1325609 6.14172256,10.1325609 5.66928236,10.3682018 C4.96062207,10.6038428 4.48818187,10.8394837 4.25196177,11.3107656 C4.01574167,11.7820475 3.54330148,12.2533294 3.30708138,12.7246113 C3.07086128,13.4315342 3.07086128,14.138457 3.07086128,15.0810208 L3.07086128,22.8571722 L0,22.8571722 L0,7.77615136 Z" id="Shape"></path>
                    <path d="M20.0787084,16.4948665 C20.0787084,17.2017894 20.3149285,17.6730713 20.5511486,18.3799941 C20.7873687,18.851276 21.2598089,19.3225579 21.7322491,19.7938398 C22.2046893,20.2651217 22.6771294,20.5007627 23.3857897,20.7364036 C24.09445,20.9720446 24.5668902,20.9720446 25.2755505,20.9720446 C26.2204309,20.9720446 26.9290912,20.7364036 27.6377515,20.2651217 C28.3464118,19.7938398 28.818852,19.3225579 29.5275123,18.6156351 L31.6534932,20.2651217 C29.9999525,22.3858903 27.8739716,23.3284541 25.0393304,23.3284541 C23.8582299,23.3284541 22.6771294,23.0928131 21.7322491,22.6215312 C20.7873687,22.1502493 19.8424883,21.6789674 19.3700481,20.9720446 C18.6613878,20.2651217 18.1889476,19.3225579 17.7165074,18.3799941 C17.2440672,17.4374303 17.0078471,16.4948665 17.0078471,15.3166618 C17.0078471,14.138457 17.2440672,13.1958932 17.7165074,12.2533294 C18.1889476,11.3107656 18.6613878,10.3682018 19.3700481,9.66127896 C20.0787084,8.95435611 20.7873687,8.48307421 21.9684692,8.01179231 C23.1495696,7.5405104 24.09445,7.30486945 25.0393304,7.30486945 C26.456651,7.30486945 27.6377515,7.5405104 28.3464118,8.01179231 C29.2912922,8.48307421 29.9999525,9.18999706 30.7086128,9.89691991 C31.4172731,10.6038428 31.6534932,11.5464066 31.8897133,12.4889704 C32.1259334,13.4315342 32.3621535,14.374098 32.3621535,15.3166618 L32.3621535,16.2592256 L20.0787084,16.2592256 L20.0787084,16.4948665 Z M29.2912922,14.138457 C29.2912922,13.4315342 29.0550721,12.9602523 29.0550721,12.4889704 C28.818852,11.7820475 28.3464118,11.3107656 28.1101917,10.8394837 C27.6377515,10.3682018 27.4015314,10.1325609 26.6928711,9.89691991 C25.9842108,9.66127896 25.5117706,9.66127896 24.8031103,9.66127896 C24.09445,9.66127896 23.3857897,9.89691991 22.9133495,10.1325609 C22.4409093,10.3682018 21.7322491,10.8394837 21.496029,11.0751247 C21.0235888,11.5464066 20.7873687,12.0176885 20.5511486,12.4889704 C20.3149285,12.9602523 20.3149285,13.4315342 20.3149285,14.138457 L29.2912922,14.138457 Z" id="Shape"></path>
                    <path d="M49.1337805,22.8571722 L46.2991393,22.8571722 L46.2991393,20.5007627 L46.2991393,20.5007627 C45.8266991,21.2076855 45.3542589,21.9146084 44.4093785,22.3858903 C43.4644981,22.8571722 42.5196177,23.0928131 41.3385172,23.0928131 C40.6298569,23.0928131 39.9211966,23.0928131 39.2125363,22.8571722 C38.503876,22.6215312 38.0314358,22.3858903 37.5589956,21.9146084 C37.0865555,21.4433265 36.6141153,20.7364036 36.3778952,20.0294808 C36.1416751,19.3225579 35.905455,18.3799941 35.905455,17.4374303 L35.905455,7.77615136 L38.7400961,7.77615136 L38.7400961,16.7305075 C38.7400961,17.4374303 38.7400961,18.1443532 38.9763162,18.6156351 C39.2125363,19.086917 39.4487564,19.5581989 39.6849765,19.7938398 C39.9211966,20.0294808 40.3936368,20.2651217 40.866077,20.5007627 C41.3385172,20.7364036 41.8109574,20.7364036 42.0471775,20.7364036 C42.7558378,20.7364036 43.228278,20.7364036 43.7007182,20.5007627 C44.1731584,20.2651217 44.6455986,20.0294808 45.1180388,19.5581989 C45.590479,19.086917 45.8266991,18.6156351 46.0629192,17.9087122 C46.2991393,17.2017894 46.2991393,16.4948665 46.2991393,15.5523027 L46.2991393,7.77615136 L49.1337805,7.77615136 L49.1337805,22.8571722 L49.1337805,22.8571722 Z" id="Shape"></path>
                    <path d="M61.6534457,10.1325609 L57.4014839,10.1325609 L57.4014839,16.9661484 L57.4014839,18.1443532 C57.4014839,18.6156351 57.4014839,18.851276 57.637704,19.3225579 C57.8739241,19.5581989 57.8739241,20.0294808 58.3463643,20.0294808 C58.5825844,20.2651217 59.0550246,20.2651217 59.5274648,20.2651217 L60.4723452,20.2651217 C60.9447854,20.2651217 61.1810055,20.0294808 61.4172256,20.0294808 L61.4172256,22.6215312 C61.1810055,22.8571722 60.7085653,22.8571722 59.999905,23.0928131 L58.8188045,23.0928131 C57.637704,23.0928131 56.9290437,22.8571722 56.2203834,22.6215312 C55.5117231,22.3858903 55.275503,21.9146084 54.8030628,21.4433265 C54.5668427,20.9720446 54.3306226,20.5007627 54.3306226,19.7938398 L54.3306226,17.9087122 L54.3306226,10.1325609 L51.0235413,10.1325609 L51.0235413,7.77615136 L54.3306226,7.77615136 L54.3306226,3.53461425 L57.1652638,3.53461425 L57.1652638,7.77615136 L61.4172256,7.77615136 L61.4172256,10.1325609 L61.6534457,10.1325609 Z" id="Shape"></path>
                    <path d="M65.4329673,7.77615136 L68.2676084,7.77615136 L68.2676084,10.1325609 L68.2676084,10.1325609 C68.5038285,9.66127896 68.7400486,9.42563801 68.9762687,8.95435611 C69.2124888,8.71871516 69.684929,8.24743326 70.1573692,8.01179231 C70.6298094,7.77615136 71.1022496,7.5405104 71.3384697,7.5405104 C71.5746898,7.5405104 72.2833501,7.30486945 72.7557903,7.30486945 C73.2282305,7.30486945 73.7006707,7.30486945 73.9368908,7.5405104 L73.7006707,10.6038428 C73.4644506,10.6038428 73.2282305,10.6038428 72.9920104,10.3682018 L72.2833501,10.3682018 C70.8660295,10.3682018 69.684929,10.8394837 68.9762687,11.5464066 C68.2676084,12.2533294 67.7951682,13.6671751 67.7951682,15.3166618 L67.7951682,22.8571722 L64.9605271,22.8571722 L64.9605271,7.77615136 L65.4329673,7.77615136 Z" id="Shape"></path>
                    <path d="M76.771532,2.3564095 C76.771532,1.8851276 77.0077521,1.17820475 77.4801923,0.942563801 C77.9526325,0.70692285 78.4250727,0.23564095 78.8975129,0.23564095 C79.3699531,0.23564095 80.0786134,0.4712819 80.3148335,0.942563801 C80.7872737,1.4138457 81.0234938,1.8851276 81.0234938,2.3564095 C81.0234938,2.8276914 80.7872737,3.2989733 80.5510536,3.7702552 C80.0786134,4.2415371 79.6061732,4.47717805 79.133733,4.47717805 C78.6612928,4.47717805 77.9526325,4.2415371 77.4801923,3.7702552 C77.0077521,3.2989733 76.771532,2.8276914 76.771532,2.3564095 Z M77.4801923,7.77615136 L80.3148335,7.77615136 L80.3148335,22.8571722 L77.4801923,22.8571722 L77.4801923,7.77615136 Z" id="Shape"></path>
                    <path d="M85.0392354,7.77615136 L87.8738766,7.77615136 L87.8738766,10.1325609 L87.8738766,10.1325609 C88.3463168,9.42563801 88.818757,8.71871516 89.7636374,8.24743326 C90.7085178,7.77615136 91.6533982,7.5405104 92.8344987,7.5405104 C93.543159,7.5405104 94.2518193,7.5405104 94.9604796,7.77615136 C95.6691399,8.01179231 96.1415801,8.24743326 96.6140203,8.71871516 C97.0864605,9.18999706 97.5589006,9.89691991 97.7951207,10.6038428 C98.0313408,11.3107656 98.2675609,12.2533294 98.2675609,13.1958932 L98.2675609,22.8571722 L95.4329198,22.8571722 L95.4329198,13.9028161 C95.4329198,13.1958932 95.4329198,12.4889704 95.1966997,12.0176885 C94.9604796,11.5464066 94.7242595,11.3107656 94.4880394,10.8394837 C94.2518193,10.6038428 93.7793791,10.3682018 93.3069389,10.1325609 C92.8344987,9.89691991 92.3620585,9.89691991 92.1258384,9.89691991 C91.4171781,9.89691991 90.9447379,9.89691991 90.4722977,10.1325609 C89.9998575,10.3682018 89.5274173,10.6038428 89.0549771,11.0751247 C88.5825369,11.5464066 88.3463168,12.0176885 88.1100967,12.7246113 C87.8738766,13.4315342 87.8738766,14.138457 87.8738766,15.0810208 L87.8738766,22.8571722 L85.0392354,22.8571722 L85.0392354,7.77615136 Z" id="Shape"></path>
                    <path d="M102.047083,15.3166618 C102.047083,14.138457 102.283303,13.1958932 102.755743,12.2533294 C103.228183,11.3107656 103.700623,10.3682018 104.409284,9.66127896 C105.117944,8.95435611 106.062824,8.48307421 107.007705,8.01179231 C107.952585,7.5405104 109.133685,7.30486945 110.078566,7.30486945 C111.259666,7.30486945 112.204547,7.5405104 113.149427,8.01179231 C114.094308,8.48307421 115.039188,8.95435611 115.747848,9.66127896 C116.456509,10.3682018 116.928949,11.3107656 117.401389,12.2533294 C118.110049,13.1958932 118.110049,14.138457 118.110049,15.3166618 C118.110049,16.4948665 117.873829,17.4374303 117.401389,18.3799941 C116.928949,19.3225579 116.456509,20.2651217 115.747848,20.9720446 C115.039188,21.6789674 114.094308,22.1502493 113.149427,22.6215312 C112.204547,23.0928131 111.023446,23.3284541 110.078566,23.3284541 C108.897465,23.3284541 107.952585,23.0928131 107.007705,22.6215312 C106.062824,22.1502493 105.117944,21.6789674 104.409284,20.9720446 C103.700623,20.2651217 103.228183,19.3225579 102.755743,18.3799941 C102.283303,17.4374303 102.047083,16.4948665 102.047083,15.3166618 Z M109.369906,22.1502493 C105.586544,22.1502493 102.519523,19.090748 102.519523,15.3166618 C102.519523,11.5425756 105.586544,8.48307421 109.369906,8.48307421 C113.153268,8.48307421 116.220288,11.5425756 116.220288,15.3166618 C116.220288,19.090748 113.153268,22.1502493 109.369906,22.1502493 Z" id="Combined-Shape"></path>
                </g>
            </g>
        </g>
    </g>
</svg>